# xmcd
#
# Track frame offsets:
#	150
#	37260
#	78357
#	93438
#	106977
#	133714
#	149269
#	169176
#
# Disc length: 2537 seconds
#
# Revision: 0
# Processed by: cddbd v1.5.2PL0 Copyright (c) Steve Scherf et al.
# Submitted via: EZCDAudioConverter 2.1.7.1
#
DISCID=6a09e708
DTITLE=Black Mountain - Black Mountain (2005) 2/2
DYEAR=1900
DGENRE=
TTITLE0=Druganaut [Extended Remix]
TTITLE1=Buffalo Swan
TTITLE2=Bicycle Man
TTITLE3=Behind The Fall
TTITLE4=Set Us Free [Demo]
TTITLE5=Black Mountain [Demo]
TTITLE6=No Satisfaction [UK Radio]
TTITLE7=It Wasn't Arson
EXTD=
EXTT0=
EXTT1=
EXTT2=
EXTT3=
EXTT4=
EXTT5=
EXTT6=
EXTT7=
PLAYORDER=
